<mxfile host="app.diagrams.net" agent="Mozilla/5.0 (X11; Linux x86_64; rv:131.0) Gecko/20100101 Firefox/131.0" version="24.7.17">
  <diagram name="Page-1" id="cXFv5bR6fwXfxYRMZj6m">
    <mxGraphModel dx="1114" dy="612" grid="1" gridSize="10" guides="1" tooltips="1" connect="1" arrows="1" fold="1" page="1" pageScale="1" pageWidth="850" pageHeight="1100" math="0" shadow="0">
      <root>
        <mxCell id="0" />
        <mxCell id="1" parent="0" />
        <mxCell id="UO7BVjnKkg6zhn3-YhnN-13" style="rounded=0;orthogonalLoop=1;jettySize=auto;html=1;exitX=0.5;exitY=1;exitDx=0;exitDy=0;entryX=0;entryY=0;entryDx=0;entryDy=0;fillColor=#ffe6cc;strokeColor=#d79b00;" edge="1" parent="1" source="UO7BVjnKkg6zhn3-YhnN-1" target="UO7BVjnKkg6zhn3-YhnN-5">
          <mxGeometry relative="1" as="geometry" />
        </mxCell>
        <mxCell id="UO7BVjnKkg6zhn3-YhnN-18" style="rounded=0;orthogonalLoop=1;jettySize=auto;html=1;exitX=0.5;exitY=1;exitDx=0;exitDy=0;entryX=0;entryY=0;entryDx=0;entryDy=0;fillColor=#dae8fc;strokeColor=#6c8ebf;" edge="1" parent="1" source="UO7BVjnKkg6zhn3-YhnN-1" target="UO7BVjnKkg6zhn3-YhnN-6">
          <mxGeometry relative="1" as="geometry" />
        </mxCell>
        <mxCell id="UO7BVjnKkg6zhn3-YhnN-1" value="X&lt;sub&gt;11&lt;/sub&gt;" style="ellipse;whiteSpace=wrap;html=1;aspect=fixed;" vertex="1" parent="1">
          <mxGeometry x="100" y="40" width="60" height="60" as="geometry" />
        </mxCell>
        <mxCell id="UO7BVjnKkg6zhn3-YhnN-24" style="rounded=0;orthogonalLoop=1;jettySize=auto;html=1;exitX=0.5;exitY=1;exitDx=0;exitDy=0;entryX=0;entryY=0;entryDx=0;entryDy=0;fillColor=#ffe6cc;strokeColor=#d79b00;" edge="1" parent="1" source="UO7BVjnKkg6zhn3-YhnN-2" target="UO7BVjnKkg6zhn3-YhnN-9">
          <mxGeometry relative="1" as="geometry" />
        </mxCell>
        <mxCell id="UO7BVjnKkg6zhn3-YhnN-25" style="rounded=0;orthogonalLoop=1;jettySize=auto;html=1;entryX=0;entryY=0;entryDx=0;entryDy=0;fillColor=#ffe6cc;strokeColor=#d79b00;exitX=0.5;exitY=1;exitDx=0;exitDy=0;" edge="1" parent="1" source="UO7BVjnKkg6zhn3-YhnN-2" target="UO7BVjnKkg6zhn3-YhnN-11">
          <mxGeometry relative="1" as="geometry">
            <mxPoint x="560" y="200" as="sourcePoint" />
          </mxGeometry>
        </mxCell>
        <mxCell id="UO7BVjnKkg6zhn3-YhnN-2" value="X&lt;sub&gt;12&lt;/sub&gt;" style="ellipse;whiteSpace=wrap;html=1;aspect=fixed;" vertex="1" parent="1">
          <mxGeometry x="460" y="100" width="60" height="60" as="geometry" />
        </mxCell>
        <mxCell id="UO7BVjnKkg6zhn3-YhnN-31" style="rounded=0;orthogonalLoop=1;jettySize=auto;html=1;exitX=0.5;exitY=1;exitDx=0;exitDy=0;fillColor=#ffe6cc;strokeColor=#d79b00;" edge="1" parent="1" source="UO7BVjnKkg6zhn3-YhnN-3" target="UO7BVjnKkg6zhn3-YhnN-9">
          <mxGeometry relative="1" as="geometry" />
        </mxCell>
        <mxCell id="UO7BVjnKkg6zhn3-YhnN-33" style="rounded=0;orthogonalLoop=1;jettySize=auto;html=1;entryX=1;entryY=0;entryDx=0;entryDy=0;fillColor=#ffe6cc;strokeColor=#d79b00;" edge="1" parent="1" source="UO7BVjnKkg6zhn3-YhnN-3" target="UO7BVjnKkg6zhn3-YhnN-12">
          <mxGeometry relative="1" as="geometry" />
        </mxCell>
        <mxCell id="UO7BVjnKkg6zhn3-YhnN-34" style="rounded=0;orthogonalLoop=1;jettySize=auto;html=1;exitX=0.5;exitY=1;exitDx=0;exitDy=0;entryX=1;entryY=0;entryDx=0;entryDy=0;fillColor=#dae8fc;strokeColor=#6c8ebf;" edge="1" parent="1" source="UO7BVjnKkg6zhn3-YhnN-3" target="UO7BVjnKkg6zhn3-YhnN-10">
          <mxGeometry relative="1" as="geometry" />
        </mxCell>
        <mxCell id="UO7BVjnKkg6zhn3-YhnN-3" value="X&lt;sub&gt;21&lt;/sub&gt;" style="ellipse;whiteSpace=wrap;html=1;aspect=fixed;" vertex="1" parent="1">
          <mxGeometry x="600" y="170" width="60" height="60" as="geometry" />
        </mxCell>
        <mxCell id="UO7BVjnKkg6zhn3-YhnN-16" style="rounded=0;orthogonalLoop=1;jettySize=auto;html=1;exitX=0.5;exitY=1;exitDx=0;exitDy=0;entryX=0.5;entryY=0;entryDx=0;entryDy=0;fillColor=#ffe6cc;strokeColor=#d79b00;" edge="1" parent="1" source="UO7BVjnKkg6zhn3-YhnN-4" target="UO7BVjnKkg6zhn3-YhnN-5">
          <mxGeometry relative="1" as="geometry" />
        </mxCell>
        <mxCell id="UO7BVjnKkg6zhn3-YhnN-17" style="rounded=0;orthogonalLoop=1;jettySize=auto;html=1;exitX=0.5;exitY=1;exitDx=0;exitDy=0;entryX=0.5;entryY=0;entryDx=0;entryDy=0;fillColor=#dae8fc;strokeColor=#6c8ebf;" edge="1" parent="1" source="UO7BVjnKkg6zhn3-YhnN-4" target="UO7BVjnKkg6zhn3-YhnN-6">
          <mxGeometry relative="1" as="geometry" />
        </mxCell>
        <mxCell id="UO7BVjnKkg6zhn3-YhnN-4" value="X&lt;sub&gt;22&lt;/sub&gt;" style="ellipse;whiteSpace=wrap;html=1;aspect=fixed;" vertex="1" parent="1">
          <mxGeometry x="245" y="230" width="60" height="60" as="geometry" />
        </mxCell>
        <mxCell id="UO7BVjnKkg6zhn3-YhnN-47" style="edgeStyle=orthogonalEdgeStyle;rounded=0;orthogonalLoop=1;jettySize=auto;html=1;exitX=0.5;exitY=1;exitDx=0;exitDy=0;entryX=0.25;entryY=0;entryDx=0;entryDy=0;" edge="1" parent="1" source="UO7BVjnKkg6zhn3-YhnN-5" target="UO7BVjnKkg6zhn3-YhnN-43">
          <mxGeometry relative="1" as="geometry" />
        </mxCell>
        <mxCell id="UO7BVjnKkg6zhn3-YhnN-5" value="X" style="ellipse;whiteSpace=wrap;html=1;aspect=fixed;" vertex="1" parent="1">
          <mxGeometry x="100" y="340" width="60" height="60" as="geometry" />
        </mxCell>
        <mxCell id="UO7BVjnKkg6zhn3-YhnN-48" style="edgeStyle=orthogonalEdgeStyle;rounded=0;orthogonalLoop=1;jettySize=auto;html=1;exitX=0.5;exitY=1;exitDx=0;exitDy=0;entryX=0.75;entryY=0;entryDx=0;entryDy=0;" edge="1" parent="1" source="UO7BVjnKkg6zhn3-YhnN-6" target="UO7BVjnKkg6zhn3-YhnN-43">
          <mxGeometry relative="1" as="geometry" />
        </mxCell>
        <mxCell id="UO7BVjnKkg6zhn3-YhnN-6" value="X" style="ellipse;whiteSpace=wrap;html=1;aspect=fixed;" vertex="1" parent="1">
          <mxGeometry x="170" y="340" width="60" height="60" as="geometry" />
        </mxCell>
        <mxCell id="UO7BVjnKkg6zhn3-YhnN-49" style="edgeStyle=orthogonalEdgeStyle;rounded=0;orthogonalLoop=1;jettySize=auto;html=1;exitX=0.5;exitY=1;exitDx=0;exitDy=0;entryX=0.25;entryY=0;entryDx=0;entryDy=0;" edge="1" parent="1" source="UO7BVjnKkg6zhn3-YhnN-7" target="UO7BVjnKkg6zhn3-YhnN-44">
          <mxGeometry relative="1" as="geometry" />
        </mxCell>
        <mxCell id="UO7BVjnKkg6zhn3-YhnN-7" value="X" style="ellipse;whiteSpace=wrap;html=1;aspect=fixed;" vertex="1" parent="1">
          <mxGeometry x="245" y="340" width="60" height="60" as="geometry" />
        </mxCell>
        <mxCell id="UO7BVjnKkg6zhn3-YhnN-50" style="edgeStyle=orthogonalEdgeStyle;rounded=0;orthogonalLoop=1;jettySize=auto;html=1;exitX=0.5;exitY=1;exitDx=0;exitDy=0;entryX=0.75;entryY=0;entryDx=0;entryDy=0;" edge="1" parent="1" source="UO7BVjnKkg6zhn3-YhnN-8" target="UO7BVjnKkg6zhn3-YhnN-44">
          <mxGeometry relative="1" as="geometry" />
        </mxCell>
        <mxCell id="UO7BVjnKkg6zhn3-YhnN-8" value="X" style="ellipse;whiteSpace=wrap;html=1;aspect=fixed;" vertex="1" parent="1">
          <mxGeometry x="320" y="340" width="60" height="60" as="geometry" />
        </mxCell>
        <mxCell id="UO7BVjnKkg6zhn3-YhnN-51" style="edgeStyle=orthogonalEdgeStyle;rounded=0;orthogonalLoop=1;jettySize=auto;html=1;exitX=0.5;exitY=1;exitDx=0;exitDy=0;entryX=0.25;entryY=0;entryDx=0;entryDy=0;" edge="1" parent="1" source="UO7BVjnKkg6zhn3-YhnN-9" target="UO7BVjnKkg6zhn3-YhnN-45">
          <mxGeometry relative="1" as="geometry" />
        </mxCell>
        <mxCell id="UO7BVjnKkg6zhn3-YhnN-9" value="X" style="ellipse;whiteSpace=wrap;html=1;aspect=fixed;" vertex="1" parent="1">
          <mxGeometry x="390" y="340" width="60" height="60" as="geometry" />
        </mxCell>
        <mxCell id="UO7BVjnKkg6zhn3-YhnN-52" style="edgeStyle=orthogonalEdgeStyle;rounded=0;orthogonalLoop=1;jettySize=auto;html=1;exitX=0.5;exitY=1;exitDx=0;exitDy=0;entryX=0.75;entryY=0;entryDx=0;entryDy=0;" edge="1" parent="1" source="UO7BVjnKkg6zhn3-YhnN-10" target="UO7BVjnKkg6zhn3-YhnN-45">
          <mxGeometry relative="1" as="geometry" />
        </mxCell>
        <mxCell id="UO7BVjnKkg6zhn3-YhnN-10" value="X" style="ellipse;whiteSpace=wrap;html=1;aspect=fixed;" vertex="1" parent="1">
          <mxGeometry x="460" y="340" width="60" height="60" as="geometry" />
        </mxCell>
        <mxCell id="UO7BVjnKkg6zhn3-YhnN-53" style="edgeStyle=orthogonalEdgeStyle;rounded=0;orthogonalLoop=1;jettySize=auto;html=1;exitX=0.5;exitY=1;exitDx=0;exitDy=0;entryX=0.25;entryY=0;entryDx=0;entryDy=0;" edge="1" parent="1" source="UO7BVjnKkg6zhn3-YhnN-11" target="UO7BVjnKkg6zhn3-YhnN-46">
          <mxGeometry relative="1" as="geometry" />
        </mxCell>
        <mxCell id="UO7BVjnKkg6zhn3-YhnN-11" value="X" style="ellipse;whiteSpace=wrap;html=1;aspect=fixed;" vertex="1" parent="1">
          <mxGeometry x="530" y="340" width="60" height="60" as="geometry" />
        </mxCell>
        <mxCell id="UO7BVjnKkg6zhn3-YhnN-12" value="X" style="ellipse;whiteSpace=wrap;html=1;aspect=fixed;" vertex="1" parent="1">
          <mxGeometry x="600" y="340" width="60" height="60" as="geometry" />
        </mxCell>
        <mxCell id="UO7BVjnKkg6zhn3-YhnN-20" value="" style="endArrow=classic;html=1;rounded=0;exitX=0.5;exitY=1;exitDx=0;exitDy=0;entryX=0;entryY=0;entryDx=0;entryDy=0;fillColor=#dae8fc;strokeColor=#6c8ebf;" edge="1" parent="1" source="UO7BVjnKkg6zhn3-YhnN-1" target="UO7BVjnKkg6zhn3-YhnN-7">
          <mxGeometry width="50" height="50" relative="1" as="geometry">
            <mxPoint x="400" y="370" as="sourcePoint" />
            <mxPoint x="450" y="320" as="targetPoint" />
          </mxGeometry>
        </mxCell>
        <mxCell id="UO7BVjnKkg6zhn3-YhnN-21" value="" style="endArrow=classic;html=1;rounded=0;exitX=0.5;exitY=1;exitDx=0;exitDy=0;entryX=0.5;entryY=0;entryDx=0;entryDy=0;fillColor=#ffe6cc;strokeColor=#d79b00;" edge="1" parent="1" source="UO7BVjnKkg6zhn3-YhnN-4" target="UO7BVjnKkg6zhn3-YhnN-7">
          <mxGeometry width="50" height="50" relative="1" as="geometry">
            <mxPoint x="470" y="490" as="sourcePoint" />
            <mxPoint x="450" y="320" as="targetPoint" />
          </mxGeometry>
        </mxCell>
        <mxCell id="UO7BVjnKkg6zhn3-YhnN-22" value="" style="endArrow=classic;html=1;rounded=0;entryX=0;entryY=0;entryDx=0;entryDy=0;exitX=0.5;exitY=1;exitDx=0;exitDy=0;fillColor=#ffe6cc;strokeColor=#d79b00;" edge="1" parent="1" source="UO7BVjnKkg6zhn3-YhnN-1" target="UO7BVjnKkg6zhn3-YhnN-8">
          <mxGeometry width="50" height="50" relative="1" as="geometry">
            <mxPoint x="400" y="370" as="sourcePoint" />
            <mxPoint x="450" y="320" as="targetPoint" />
          </mxGeometry>
        </mxCell>
        <mxCell id="UO7BVjnKkg6zhn3-YhnN-23" value="" style="endArrow=classic;html=1;rounded=0;exitX=0.5;exitY=1;exitDx=0;exitDy=0;entryX=0.5;entryY=0;entryDx=0;entryDy=0;fillColor=#dae8fc;strokeColor=#6c8ebf;" edge="1" parent="1" source="UO7BVjnKkg6zhn3-YhnN-4" target="UO7BVjnKkg6zhn3-YhnN-8">
          <mxGeometry width="50" height="50" relative="1" as="geometry">
            <mxPoint x="400" y="370" as="sourcePoint" />
            <mxPoint x="450" y="320" as="targetPoint" />
          </mxGeometry>
        </mxCell>
        <mxCell id="UO7BVjnKkg6zhn3-YhnN-26" style="rounded=0;orthogonalLoop=1;jettySize=auto;html=1;exitX=0.5;exitY=1;exitDx=0;exitDy=0;fillColor=#dae8fc;strokeColor=#6c8ebf;entryX=0.5;entryY=0;entryDx=0;entryDy=0;" edge="1" parent="1" source="UO7BVjnKkg6zhn3-YhnN-2" target="UO7BVjnKkg6zhn3-YhnN-10">
          <mxGeometry relative="1" as="geometry">
            <mxPoint x="500" y="290" as="targetPoint" />
          </mxGeometry>
        </mxCell>
        <mxCell id="UO7BVjnKkg6zhn3-YhnN-27" value="" style="endArrow=classic;html=1;rounded=0;entryX=0.5;entryY=0;entryDx=0;entryDy=0;exitX=0.5;exitY=1;exitDx=0;exitDy=0;fillColor=#dae8fc;strokeColor=#6c8ebf;" edge="1" parent="1" source="UO7BVjnKkg6zhn3-YhnN-2" target="UO7BVjnKkg6zhn3-YhnN-12">
          <mxGeometry width="50" height="50" relative="1" as="geometry">
            <mxPoint x="400" y="370" as="sourcePoint" />
            <mxPoint x="450" y="320" as="targetPoint" />
          </mxGeometry>
        </mxCell>
        <mxCell id="UO7BVjnKkg6zhn3-YhnN-35" value="" style="endArrow=classic;html=1;rounded=0;exitX=0.5;exitY=1;exitDx=0;exitDy=0;entryX=0.5;entryY=0;entryDx=0;entryDy=0;fillColor=#dae8fc;strokeColor=#6c8ebf;" edge="1" parent="1" source="UO7BVjnKkg6zhn3-YhnN-3" target="UO7BVjnKkg6zhn3-YhnN-11">
          <mxGeometry width="50" height="50" relative="1" as="geometry">
            <mxPoint x="400" y="370" as="sourcePoint" />
            <mxPoint x="450" y="320" as="targetPoint" />
          </mxGeometry>
        </mxCell>
        <mxCell id="UO7BVjnKkg6zhn3-YhnN-39" value="" style="endArrow=none;html=1;rounded=0;" edge="1" parent="1">
          <mxGeometry width="50" height="50" relative="1" as="geometry">
            <mxPoint x="50" y="100" as="sourcePoint" />
            <mxPoint x="820" y="100" as="targetPoint" />
          </mxGeometry>
        </mxCell>
        <mxCell id="UO7BVjnKkg6zhn3-YhnN-40" value="" style="endArrow=none;html=1;rounded=0;" edge="1" parent="1">
          <mxGeometry width="50" height="50" relative="1" as="geometry">
            <mxPoint x="50" y="160" as="sourcePoint" />
            <mxPoint x="820" y="160" as="targetPoint" />
          </mxGeometry>
        </mxCell>
        <mxCell id="UO7BVjnKkg6zhn3-YhnN-41" value="" style="endArrow=none;html=1;rounded=0;" edge="1" parent="1">
          <mxGeometry width="50" height="50" relative="1" as="geometry">
            <mxPoint x="50" y="230" as="sourcePoint" />
            <mxPoint x="820" y="230" as="targetPoint" />
          </mxGeometry>
        </mxCell>
        <mxCell id="UO7BVjnKkg6zhn3-YhnN-42" value="" style="endArrow=none;html=1;rounded=0;" edge="1" parent="1">
          <mxGeometry width="50" height="50" relative="1" as="geometry">
            <mxPoint x="50" y="290" as="sourcePoint" />
            <mxPoint x="820" y="290" as="targetPoint" />
          </mxGeometry>
        </mxCell>
        <mxCell id="UO7BVjnKkg6zhn3-YhnN-59" style="edgeStyle=orthogonalEdgeStyle;rounded=0;orthogonalLoop=1;jettySize=auto;html=1;exitX=0.5;exitY=1;exitDx=0;exitDy=0;entryX=0.25;entryY=0;entryDx=0;entryDy=0;" edge="1" parent="1" source="UO7BVjnKkg6zhn3-YhnN-43" target="UO7BVjnKkg6zhn3-YhnN-56">
          <mxGeometry relative="1" as="geometry">
            <Array as="points">
              <mxPoint x="160" y="500" />
              <mxPoint x="225" y="500" />
            </Array>
          </mxGeometry>
        </mxCell>
        <mxCell id="UO7BVjnKkg6zhn3-YhnN-43" value="&lt;div&gt;SUB&lt;/div&gt;" style="shape=loopLimit;whiteSpace=wrap;html=1;fillColor=#d5e8d4;strokeColor=#82b366;" vertex="1" parent="1">
          <mxGeometry x="130" y="440" width="60" height="50" as="geometry" />
        </mxCell>
        <mxCell id="UO7BVjnKkg6zhn3-YhnN-63" style="edgeStyle=orthogonalEdgeStyle;rounded=0;orthogonalLoop=1;jettySize=auto;html=1;exitX=0.5;exitY=1;exitDx=0;exitDy=0;entryX=0.25;entryY=0;entryDx=0;entryDy=0;" edge="1" parent="1" source="UO7BVjnKkg6zhn3-YhnN-44" target="UO7BVjnKkg6zhn3-YhnN-61">
          <mxGeometry relative="1" as="geometry" />
        </mxCell>
        <mxCell id="UO7BVjnKkg6zhn3-YhnN-44" value="SUM" style="shape=loopLimit;whiteSpace=wrap;html=1;fillColor=#f8cecc;strokeColor=#b85450;" vertex="1" parent="1">
          <mxGeometry x="280" y="440" width="60" height="50" as="geometry" />
        </mxCell>
        <mxCell id="UO7BVjnKkg6zhn3-YhnN-62" style="edgeStyle=orthogonalEdgeStyle;rounded=0;orthogonalLoop=1;jettySize=auto;html=1;exitX=0.5;exitY=1;exitDx=0;exitDy=0;entryX=0.75;entryY=0;entryDx=0;entryDy=0;" edge="1" parent="1" source="UO7BVjnKkg6zhn3-YhnN-45" target="UO7BVjnKkg6zhn3-YhnN-56">
          <mxGeometry relative="1" as="geometry">
            <Array as="points">
              <mxPoint x="455" y="500" />
              <mxPoint x="255" y="500" />
            </Array>
          </mxGeometry>
        </mxCell>
        <mxCell id="UO7BVjnKkg6zhn3-YhnN-45" value="&lt;div&gt;SUB&lt;/div&gt;" style="shape=loopLimit;whiteSpace=wrap;html=1;fillColor=#d5e8d4;strokeColor=#82b366;" vertex="1" parent="1">
          <mxGeometry x="425" y="440" width="60" height="50" as="geometry" />
        </mxCell>
        <mxCell id="UO7BVjnKkg6zhn3-YhnN-64" style="edgeStyle=orthogonalEdgeStyle;rounded=0;orthogonalLoop=1;jettySize=auto;html=1;exitX=0.5;exitY=1;exitDx=0;exitDy=0;entryX=0.75;entryY=0;entryDx=0;entryDy=0;" edge="1" parent="1" source="UO7BVjnKkg6zhn3-YhnN-46" target="UO7BVjnKkg6zhn3-YhnN-61">
          <mxGeometry relative="1" as="geometry" />
        </mxCell>
        <mxCell id="UO7BVjnKkg6zhn3-YhnN-46" value="SUM" style="shape=loopLimit;whiteSpace=wrap;html=1;fillColor=#f8cecc;strokeColor=#b85450;" vertex="1" parent="1">
          <mxGeometry x="570" y="440" width="60" height="50" as="geometry" />
        </mxCell>
        <mxCell id="UO7BVjnKkg6zhn3-YhnN-54" style="edgeStyle=orthogonalEdgeStyle;rounded=0;orthogonalLoop=1;jettySize=auto;html=1;exitX=0.5;exitY=1;exitDx=0;exitDy=0;entryX=0.643;entryY=0.02;entryDx=0;entryDy=0;entryPerimeter=0;" edge="1" parent="1" source="UO7BVjnKkg6zhn3-YhnN-12" target="UO7BVjnKkg6zhn3-YhnN-46">
          <mxGeometry relative="1" as="geometry" />
        </mxCell>
        <mxCell id="UO7BVjnKkg6zhn3-YhnN-55" value="" style="endArrow=none;html=1;rounded=0;" edge="1" parent="1">
          <mxGeometry width="50" height="50" relative="1" as="geometry">
            <mxPoint x="50" y="400" as="sourcePoint" />
            <mxPoint x="820" y="400" as="targetPoint" />
          </mxGeometry>
        </mxCell>
        <mxCell id="UO7BVjnKkg6zhn3-YhnN-72" style="edgeStyle=orthogonalEdgeStyle;rounded=0;orthogonalLoop=1;jettySize=auto;html=1;exitX=0.5;exitY=1;exitDx=0;exitDy=0;entryX=0.5;entryY=0;entryDx=0;entryDy=0;" edge="1" parent="1" source="UO7BVjnKkg6zhn3-YhnN-56" target="UO7BVjnKkg6zhn3-YhnN-67">
          <mxGeometry relative="1" as="geometry" />
        </mxCell>
        <mxCell id="UO7BVjnKkg6zhn3-YhnN-56" value="&lt;div&gt;SUB&lt;/div&gt;" style="shape=loopLimit;whiteSpace=wrap;html=1;fillColor=#d5e8d4;strokeColor=#82b366;" vertex="1" parent="1">
          <mxGeometry x="210" y="540" width="60" height="50" as="geometry" />
        </mxCell>
        <mxCell id="UO7BVjnKkg6zhn3-YhnN-73" style="edgeStyle=orthogonalEdgeStyle;rounded=0;orthogonalLoop=1;jettySize=auto;html=1;exitX=0.5;exitY=1;exitDx=0;exitDy=0;entryX=0.5;entryY=0;entryDx=0;entryDy=0;" edge="1" parent="1" source="UO7BVjnKkg6zhn3-YhnN-61" target="UO7BVjnKkg6zhn3-YhnN-68">
          <mxGeometry relative="1" as="geometry" />
        </mxCell>
        <mxCell id="UO7BVjnKkg6zhn3-YhnN-61" value="&lt;div&gt;SUB&lt;/div&gt;" style="shape=loopLimit;whiteSpace=wrap;html=1;fillColor=#d5e8d4;strokeColor=#82b366;" vertex="1" parent="1">
          <mxGeometry x="500" y="540" width="60" height="50" as="geometry" />
        </mxCell>
        <mxCell id="UO7BVjnKkg6zhn3-YhnN-65" value="" style="endArrow=none;html=1;rounded=0;" edge="1" parent="1">
          <mxGeometry width="50" height="50" relative="1" as="geometry">
            <mxPoint x="50" y="490" as="sourcePoint" />
            <mxPoint x="820" y="490" as="targetPoint" />
          </mxGeometry>
        </mxCell>
        <mxCell id="UO7BVjnKkg6zhn3-YhnN-70" style="edgeStyle=orthogonalEdgeStyle;rounded=0;orthogonalLoop=1;jettySize=auto;html=1;exitX=0.5;exitY=1;exitDx=0;exitDy=0;entryX=0.25;entryY=0;entryDx=0;entryDy=0;" edge="1" parent="1" source="UO7BVjnKkg6zhn3-YhnN-67" target="UO7BVjnKkg6zhn3-YhnN-69">
          <mxGeometry relative="1" as="geometry" />
        </mxCell>
        <mxCell id="UO7BVjnKkg6zhn3-YhnN-67" value="ABS" style="rounded=0;whiteSpace=wrap;html=1;" vertex="1" parent="1">
          <mxGeometry x="210" y="620" width="60" height="60" as="geometry" />
        </mxCell>
        <mxCell id="UO7BVjnKkg6zhn3-YhnN-71" style="edgeStyle=orthogonalEdgeStyle;rounded=0;orthogonalLoop=1;jettySize=auto;html=1;exitX=0.5;exitY=1;exitDx=0;exitDy=0;entryX=0.75;entryY=0;entryDx=0;entryDy=0;" edge="1" parent="1" source="UO7BVjnKkg6zhn3-YhnN-68" target="UO7BVjnKkg6zhn3-YhnN-69">
          <mxGeometry relative="1" as="geometry" />
        </mxCell>
        <mxCell id="UO7BVjnKkg6zhn3-YhnN-68" value="ABS" style="rounded=0;whiteSpace=wrap;html=1;" vertex="1" parent="1">
          <mxGeometry x="500" y="620" width="60" height="60" as="geometry" />
        </mxCell>
        <mxCell id="UO7BVjnKkg6zhn3-YhnN-76" style="rounded=0;orthogonalLoop=1;jettySize=auto;html=1;exitX=0.25;exitY=1;exitDx=0;exitDy=0;" edge="1" parent="1" source="UO7BVjnKkg6zhn3-YhnN-69">
          <mxGeometry relative="1" as="geometry">
            <mxPoint x="330" y="880" as="targetPoint" />
          </mxGeometry>
        </mxCell>
        <mxCell id="UO7BVjnKkg6zhn3-YhnN-77" style="rounded=0;orthogonalLoop=1;jettySize=auto;html=1;exitX=0.75;exitY=1;exitDx=0;exitDy=0;" edge="1" parent="1" source="UO7BVjnKkg6zhn3-YhnN-69">
          <mxGeometry relative="1" as="geometry">
            <mxPoint x="430" y="880" as="targetPoint" />
          </mxGeometry>
        </mxCell>
        <mxCell id="UO7BVjnKkg6zhn3-YhnN-69" value="SUM" style="shape=loopLimit;whiteSpace=wrap;html=1;fillColor=#f8cecc;strokeColor=#b85450;" vertex="1" parent="1">
          <mxGeometry x="350" y="730" width="60" height="50" as="geometry" />
        </mxCell>
        <mxCell id="UO7BVjnKkg6zhn3-YhnN-74" value="" style="endArrow=none;html=1;rounded=0;" edge="1" parent="1">
          <mxGeometry width="50" height="50" relative="1" as="geometry">
            <mxPoint x="50" y="590" as="sourcePoint" />
            <mxPoint x="820" y="590" as="targetPoint" />
          </mxGeometry>
        </mxCell>
        <mxCell id="UO7BVjnKkg6zhn3-YhnN-75" value="" style="endArrow=none;html=1;rounded=0;" edge="1" parent="1">
          <mxGeometry width="50" height="50" relative="1" as="geometry">
            <mxPoint x="50" y="680" as="sourcePoint" />
            <mxPoint x="820" y="680" as="targetPoint" />
          </mxGeometry>
        </mxCell>
        <mxCell id="UO7BVjnKkg6zhn3-YhnN-78" value="MAX" style="text;html=1;align=center;verticalAlign=middle;resizable=0;points=[];autosize=1;strokeColor=none;fillColor=none;" vertex="1" parent="1">
          <mxGeometry x="305" y="798" width="50" height="30" as="geometry" />
        </mxCell>
        <mxCell id="UO7BVjnKkg6zhn3-YhnN-79" value="MIN" style="text;html=1;align=center;verticalAlign=middle;resizable=0;points=[];autosize=1;strokeColor=none;fillColor=none;" vertex="1" parent="1">
          <mxGeometry x="410" y="798" width="50" height="30" as="geometry" />
        </mxCell>
        <mxCell id="UO7BVjnKkg6zhn3-YhnN-81" value="" style="endArrow=classic;html=1;rounded=0;exitX=0.5;exitY=1;exitDx=0;exitDy=0;" edge="1" parent="1" source="UO7BVjnKkg6zhn3-YhnN-56">
          <mxGeometry width="50" height="50" relative="1" as="geometry">
            <mxPoint x="430" y="730" as="sourcePoint" />
            <mxPoint x="90" y="670" as="targetPoint" />
          </mxGeometry>
        </mxCell>
        <mxCell id="UO7BVjnKkg6zhn3-YhnN-82" value="" style="endArrow=classic;html=1;rounded=0;" edge="1" parent="1">
          <mxGeometry width="50" height="50" relative="1" as="geometry">
            <mxPoint x="530" y="590" as="sourcePoint" />
            <mxPoint x="710" y="670" as="targetPoint" />
          </mxGeometry>
        </mxCell>
        <mxCell id="UO7BVjnKkg6zhn3-YhnN-83" value="&lt;div&gt;&lt;font style=&quot;font-size: 18px;&quot;&gt;det_Im&lt;/font&gt;&lt;/div&gt;" style="text;html=1;align=center;verticalAlign=middle;resizable=0;points=[];autosize=1;strokeColor=none;fillColor=none;" vertex="1" parent="1">
          <mxGeometry x="600" y="590" width="80" height="40" as="geometry" />
        </mxCell>
        <mxCell id="UO7BVjnKkg6zhn3-YhnN-84" value="&lt;font style=&quot;font-size: 18px;&quot;&gt;det_Re&lt;/font&gt;" style="text;html=1;align=center;verticalAlign=middle;resizable=0;points=[];autosize=1;strokeColor=none;fillColor=none;" vertex="1" parent="1">
          <mxGeometry x="100" y="590" width="80" height="40" as="geometry" />
        </mxCell>
      </root>
    </mxGraphModel>
  </diagram>
</mxfile>
